<svg width="30" height="32" viewBox="0 0 30 32" fill="none" xmlns="http://www.w3.org/2000/svg">
<path d="M15.3219 24.0677C11.1431 26.4803 13.8443 30.3056 14.8226 32L18.6319 29.8007C23.0274 27.2631 19.8957 21.427 15.3219 24.0677Z" fill="#AB1D05"/>
<path d="M14.3236 24.0677C18.5024 26.4803 15.8012 30.3056 14.8229 32L11.0136 29.8007C6.61807 27.2631 9.74976 21.427 14.3236 24.0677Z" fill="#EF4123"/>
<path d="M15.3219 24.0677C11.1431 26.4803 13.8443 30.3056 14.8226 32L18.6319 29.8007C23.0274 27.2631 19.8957 21.427 15.3219 24.0677Z" fill="#AB1D05" fill-opacity="0.5"/>
<path d="M23.8319 11.2982C25.4568 11.2982 26.7741 9.98088 26.7741 8.35593C26.7741 6.73098 25.4568 5.4137 23.8319 5.4137C22.2069 5.4137 20.8896 6.73098 20.8896 8.35593C20.8896 9.98088 22.2069 11.2982 23.8319 11.2982Z" fill="url(#paint0_linear_1510_12657)"/>
<path d="M14.8289 8.82669C17.2663 8.82669 19.2422 6.85077 19.2422 4.41335C19.2422 1.97592 17.2663 0 14.8289 0C12.3914 0 10.4155 1.97592 10.4155 4.41335C10.4155 6.85077 12.3914 8.82669 14.8289 8.82669Z" fill="url(#paint1_linear_1510_12657)"/>
<path d="M29.6576 17.7127C29.6576 22.5379 24.9942 22.1113 23.0376 22.1113V17.7127C23.0376 12.6372 29.6576 12.4313 29.6576 17.7127Z" fill="#EF4123"/>
<path d="M26.3626 18.6685C25.583 28.1424 14.8291 28.9074 14.8291 28.9074V11.1658C19.0512 11.1658 20.4635 16.7119 20.4635 16.7119C20.4635 16.7119 21.1843 12.8134 23.847 12.7546C23.847 12.7546 26.7157 12.5486 26.3626 18.6685Z" fill="#1C2D5A"/>
<path d="M18.6392 22.3756C20.8753 19.4775 20.3015 17.4032 20.4634 16.7117C20.7577 15.3584 21.302 14.4169 21.6845 13.9314C21.6845 13.9314 23.8763 18.3447 18.6392 22.3756Z" fill="#0F1C3E"/>
<path d="M26.3626 18.6685C25.583 28.1424 14.8291 28.9074 14.8291 28.9074V11.1658C19.0512 11.1658 20.4635 16.7119 20.4635 16.7119C20.4635 16.7119 21.1843 12.8134 23.847 12.7546C23.847 12.7546 26.7157 12.5486 26.3626 18.6685Z" fill="url(#paint2_linear_1510_12657)"/>
<path d="M18.6392 22.3756C20.8753 19.4775 20.3015 17.4032 20.4634 16.7117C20.7577 15.3584 21.302 14.4169 21.6845 13.9314C21.6845 13.9314 23.8763 18.3447 18.6392 22.3756Z" fill="url(#paint3_linear_1510_12657)"/>
<path d="M29.6576 17.7127C29.6576 22.5379 24.9942 22.1113 23.0376 22.1113V17.7127C23.0376 12.6372 29.6576 12.4313 29.6576 17.7127Z" fill="url(#paint4_linear_1510_12657)" fill-opacity="0.5"/>
<path d="M5.82584 11.2982C4.20089 11.2982 2.88361 9.98088 2.88361 8.35593C2.88361 6.73098 4.20089 5.4137 5.82584 5.4137C7.45079 5.4137 8.76807 6.73098 8.76807 8.35593C8.76807 9.98088 7.45079 11.2982 5.82584 11.2982Z" fill="url(#paint5_linear_1510_12657)"/>
<path d="M0 17.7127C2.10918e-07 22.5379 4.66344 22.1113 6.62002 22.1113V17.7127C6.62002 12.6372 -2.30857e-07 12.4313 0 17.7127Z" fill="#EF4123"/>
<path d="M3.29524 18.6685C4.07494 28.1424 14.8288 28.9074 14.8288 28.9074V11.1658C10.6067 11.1658 9.19442 16.7119 9.19442 16.7119C9.19442 16.7119 8.47357 12.8134 5.81085 12.7546C5.81085 12.7546 2.94218 12.5486 3.29524 18.6685Z" fill="url(#paint6_linear_1510_12657)"/>
<path d="M11.0189 22.3756C8.78282 19.4775 9.35656 17.4032 9.19465 16.7117C8.90042 15.3584 8.35611 14.4169 7.97362 13.9314C7.97362 13.9314 5.78175 18.3447 11.0189 22.3756Z" fill="url(#paint7_linear_1510_12657)"/>
<path d="M0 17.7127C2.10918e-07 22.5379 4.66344 22.1113 6.62002 22.1113V17.7127C6.62002 12.6372 -2.30857e-07 12.4313 0 17.7127Z" fill="url(#paint8_linear_1510_12657)" fill-opacity="0.5"/>
<path d="M23.0379 22.1108C22.8025 26.0681 14.8291 28.9074 14.8291 28.9074C20.3164 28.1571 23.8912 25.8033 25.5535 22.052C23.7882 22.1697 23.0379 22.1108 23.0379 22.1108Z" fill="url(#paint9_linear_1510_12657)"/>
<path d="M6.63475 22.1108C6.87013 26.0681 14.8436 28.9074 14.8436 28.9074C9.35631 28.1571 5.7815 25.8033 4.11914 22.052C5.88448 22.1697 6.63475 22.1108 6.63475 22.1108Z" fill="url(#paint10_linear_1510_12657)"/>
<path d="M15.1178 14.4697L15.7582 15.7674C15.8028 15.8577 15.8889 15.9202 15.9885 15.9347L17.4207 16.1428C17.6716 16.1793 17.7717 16.4875 17.5902 16.6643L16.5539 17.6745C16.4819 17.7447 16.4489 17.846 16.466 17.9451L16.7106 19.3715C16.7535 19.6213 16.4912 19.8118 16.2669 19.6939L14.986 19.0205C14.8969 18.9737 14.7904 18.9737 14.7013 19.0205L13.4204 19.6939C13.1961 19.8119 12.9338 19.6213 12.9767 19.3715L13.2213 17.9451C13.2383 17.846 13.2054 17.7447 13.1334 17.6745L12.0971 16.6643C11.9156 16.4874 12.0157 16.1792 12.2666 16.1428L13.6988 15.9347C13.7984 15.9202 13.8845 15.8577 13.929 15.7674L14.5695 14.4697C14.6815 14.2424 15.0056 14.2424 15.1178 14.4697Z" fill="#FFA726"/>
<path d="M14.829 27.1274C15.3164 27.1274 15.7116 26.7322 15.7116 26.2447C15.7116 25.7572 15.3164 25.3621 14.829 25.3621C14.3415 25.3621 13.9463 25.7572 13.9463 26.2447C13.9463 26.7322 14.3415 27.1274 14.829 27.1274Z" fill="url(#paint11_linear_1510_12657)"/>
<path d="M14.829 23.5966C15.3164 23.5966 15.7116 23.2015 15.7116 22.714C15.7116 22.2265 15.3164 21.8313 14.829 21.8313C14.3415 21.8313 13.9463 22.2265 13.9463 22.714C13.9463 23.2015 14.3415 23.5966 14.829 23.5966Z" fill="url(#paint12_linear_1510_12657)"/>
<defs>
<linearGradient id="paint0_linear_1510_12657" x1="23.8319" y1="5.4137" x2="23.8319" y2="11.2982" gradientUnits="userSpaceOnUse">
<stop stop-color="#EF4123"/>
<stop offset="1" stop-color="#892514"/>
</linearGradient>
<linearGradient id="paint1_linear_1510_12657" x1="14.8289" y1="0" x2="14.8289" y2="8.82669" gradientUnits="userSpaceOnUse">
<stop stop-color="#FFA726"/>
<stop offset="1" stop-color="#9B6617"/>
</linearGradient>
<linearGradient id="paint2_linear_1510_12657" x1="20.6109" y1="11.1658" x2="20.6109" y2="28.9074" gradientUnits="userSpaceOnUse">
<stop stop-color="#0F1C3E"/>
<stop offset="1" stop-color="#06102B"/>
</linearGradient>
<linearGradient id="paint3_linear_1510_12657" x1="20.3893" y1="13.9314" x2="20.3893" y2="22.3756" gradientUnits="userSpaceOnUse">
<stop stop-color="#802824"/>
<stop offset="1" stop-color="#FFA726"/>
</linearGradient>
<linearGradient id="paint4_linear_1510_12657" x1="26.3476" y1="22.121" x2="26.3476" y2="13.8285" gradientUnits="userSpaceOnUse">
<stop stop-color="#1C2D5A"/>
<stop offset="1" stop-color="#892514"/>
</linearGradient>
<linearGradient id="paint5_linear_1510_12657" x1="5.82584" y1="5.4137" x2="5.82584" y2="11.2982" gradientUnits="userSpaceOnUse">
<stop stop-color="#EF4123"/>
<stop offset="1" stop-color="#892514"/>
</linearGradient>
<linearGradient id="paint6_linear_1510_12657" x1="9.04695" y1="11.1658" x2="9.04695" y2="28.9074" gradientUnits="userSpaceOnUse">
<stop stop-color="#06102B"/>
<stop offset="1" stop-color="#0F1C3E"/>
</linearGradient>
<linearGradient id="paint7_linear_1510_12657" x1="9.26873" y1="13.9314" x2="9.26873" y2="22.3756" gradientUnits="userSpaceOnUse">
<stop stop-color="#D63A20"/>
<stop offset="1" stop-color="#FFA726"/>
</linearGradient>
<linearGradient id="paint8_linear_1510_12657" x1="3.31001" y1="13.8285" x2="3.31001" y2="22.121" gradientUnits="userSpaceOnUse">
<stop stop-color="#EF4123"/>
<stop offset="1" stop-color="#1C2D5A"/>
</linearGradient>
<linearGradient id="paint9_linear_1510_12657" x1="25.5388" y1="22.0373" x2="14.8291" y2="28.8927" gradientUnits="userSpaceOnUse">
<stop stop-color="#CD2F14"/>
<stop offset="1" stop-color="#06102B"/>
</linearGradient>
<linearGradient id="paint10_linear_1510_12657" x1="4.11914" y1="22.0373" x2="14.8289" y2="28.8927" gradientUnits="userSpaceOnUse">
<stop stop-color="#CD2F14"/>
<stop offset="1" stop-color="#0F1C3E"/>
</linearGradient>
<linearGradient id="paint11_linear_1510_12657" x1="14.829" y1="25.3621" x2="14.829" y2="27.1274" gradientUnits="userSpaceOnUse">
<stop stop-color="#FFA726"/>
<stop offset="1" stop-color="#9B6617"/>
</linearGradient>
<linearGradient id="paint12_linear_1510_12657" x1="14.829" y1="21.8313" x2="14.829" y2="23.5966" gradientUnits="userSpaceOnUse">
<stop stop-color="#FFA726"/>
<stop offset="1" stop-color="#9B6617"/>
</linearGradient>
</defs>
</svg>
