<svg width="76" height="32" viewBox="0 0 76 32" fill="none" xmlns="http://www.w3.org/2000/svg">
<path d="M33.499 26.5496V20.1929H36.3216L38.5701 25.2608H38.8942L38.7091 25.4176V20.1929H40.3192V26.5496H37.4781L35.2297 21.4817H34.9056L35.0907 21.3249V26.5496H33.499ZM45.019 26.7238C44.4019 26.7238 43.8652 26.625 43.4088 26.4277C42.9524 26.2245 42.5728 25.9604 42.2704 25.6353C41.9684 25.3044 41.7431 24.9474 41.5951 24.5642C41.447 24.1811 41.373 23.8095 41.373 23.4496V23.2581C41.373 22.8575 41.4502 22.4656 41.6041 22.0825C41.7585 21.6935 41.99 21.3423 42.2984 21.0289C42.6067 20.7154 42.9863 20.4657 43.4364 20.28C43.8932 20.0942 44.4204 20.0013 45.019 20.0013C45.6112 20.0013 46.1326 20.0942 46.5827 20.28C47.0394 20.4657 47.4218 20.7154 47.7301 21.0289C48.0388 21.3423 48.27 21.6935 48.4243 22.0825C48.5846 22.4656 48.6649 22.8575 48.6649 23.2581V23.4496C48.6649 23.8095 48.5878 24.1811 48.4334 24.5642C48.2853 24.9474 48.0605 25.3044 47.7581 25.6353C47.4557 25.9604 47.0764 26.2245 46.6197 26.4277C46.1633 26.625 45.6297 26.7238 45.019 26.7238ZM45.019 25.2086C45.3151 25.2086 45.5805 25.1621 45.8148 25.0693C46.0491 24.9764 46.2495 24.8458 46.4161 24.6774C46.5827 24.509 46.7095 24.3146 46.7957 24.094C46.8819 23.8676 46.9252 23.6238 46.9252 23.3625C46.9252 23.0839 46.8788 22.8314 46.7862 22.605C46.7 22.3786 46.5736 22.1841 46.407 22.0215C46.2405 21.859 46.04 21.7342 45.8053 21.6471C45.571 21.56 45.3088 21.5165 45.019 21.5165C44.7228 21.5165 44.4574 21.56 44.2231 21.6471C43.9888 21.7342 43.788 21.859 43.6214 22.0215C43.4549 22.1841 43.3285 22.3786 43.2422 22.605C43.156 22.8314 43.1127 23.0839 43.1127 23.3625C43.1127 23.6238 43.156 23.8676 43.2422 24.094C43.3285 24.3146 43.4549 24.509 43.6214 24.6774C43.788 24.8458 43.9888 24.9764 44.2231 25.0693C44.4574 25.1621 44.7228 25.2086 45.019 25.2086ZM51.0591 26.5496L49.0973 20.1929H50.874L52.3452 25.4089L52.0215 25.2608H52.9099L52.5767 25.4089L53.9463 20.1929H55.6675L53.8352 26.5496H51.0591ZM55.467 26.5496L57.6324 20.1929H60.39L62.6295 26.5496H60.8527L59.113 21.3249L59.6037 21.4991H58.3822L58.8819 21.3249L57.1882 26.5496H55.467ZM57.2347 25.078L57.7529 23.7544H60.316L60.8342 25.078H57.2347Z" fill="#1C2D5A"/>
<path d="M36.7002 8.79738V5.27612H33.499C33.499 7.22082 34.9319 8.79738 36.7002 8.79738Z" fill="#EF4123"/>
<path d="M33.499 10.7882V18.0807H36.7002V9.43762H34.7266C34.0481 9.43762 33.499 10.0422 33.499 10.7882Z" fill="#1C2D5A"/>
<path d="M40.8618 10.7882V18.0807H44.7032V9.43762H42.3349C41.5207 9.43762 40.8618 10.0422 40.8618 10.7882Z" fill="#1C2D5A"/>
<path d="M45.9137 5.27612H38.6211V8.79738H47.2642V6.6263C47.2642 5.88002 46.6596 5.27612 45.9137 5.27612Z" fill="#1C2D5A"/>
<path d="M49.1846 5.27612V8.79738H52.7058C52.7058 6.85269 51.1297 5.27612 49.1846 5.27612Z" fill="#EF4123"/>
<path d="M52.7058 16.7302V9.43762H49.1846V18.0807H51.3555C52.1019 18.0807 52.7058 17.4761 52.7058 16.7302Z" fill="#1C2D5A"/>
<path d="M57.1873 16.7302V9.43762H53.666V18.0807H55.8369C56.5833 18.0807 57.1873 17.4761 57.1873 16.7302Z" fill="#1C2D5A"/>
<path d="M58.4678 8.79738H62.3091V5.27612C60.1876 5.27612 58.4678 6.85216 58.4678 8.79738Z" fill="#EF4123"/>
<path d="M62.3091 16.7302V9.43762H58.4678V18.0807H60.8361C61.6503 18.0807 62.3091 17.4761 62.3091 16.7302Z" fill="#1C2D5A"/>
<path d="M75.4181 12.5116C75.1978 12.0194 74.8048 11.5875 74.2473 11.2236C73.6898 10.8598 72.9006 10.5991 71.887 10.4512L67.9788 9.87927C67.7585 9.83938 67.5819 9.7956 67.4493 9.74699C67.3206 9.69931 67.2251 9.62731 67.1725 9.53491C67.1159 9.43859 67.0887 9.33062 67.0887 9.20709C67.0887 9.02324 67.1452 8.87538 67.2653 8.76349C67.3811 8.65163 67.5936 8.56702 67.9066 8.51545C68.2154 8.45902 68.6677 8.43177 69.2611 8.43177C70.0428 8.43177 70.6276 8.46777 71.0202 8.53977C71.4093 8.61563 71.6694 8.74013 71.8019 8.91134C71.9306 9.08741 71.9988 9.31895 71.9988 9.61952V9.89582H75.4942V9.78392C75.4942 8.85592 75.2778 8.05534 74.8528 7.38409C74.4239 6.70802 73.7787 6.18758 72.917 5.8238C72.0554 5.45998 70.961 5.27612 69.6346 5.27612C68.5078 5.27612 67.5585 5.39187 66.7884 5.62827C66.0235 5.86463 65.4016 6.17595 64.9291 6.56405C64.4601 6.95609 64.1189 7.39188 63.9064 7.87246C63.6978 8.35689 63.5898 8.84424 63.5898 9.34035C63.5898 10.0086 63.7224 10.5884 63.9825 11.0845C64.2429 11.5807 64.6316 11.9805 65.1533 12.281C65.6745 12.5855 66.3198 12.7927 67.0887 12.9056L70.9929 13.426C71.5017 13.4863 71.839 13.5738 72.0066 13.6857C72.1755 13.7937 72.2554 13.962 72.2554 14.1857C72.2554 14.3696 72.2113 14.5175 72.1189 14.6215C72.0222 14.7256 71.8098 14.8015 71.4776 14.8453C71.1411 14.8852 70.6198 14.9095 69.9141 14.9095C69.1324 14.9095 68.5554 14.8774 68.1823 14.8171C67.8138 14.7528 67.5655 14.6449 67.4485 14.4892C67.3323 14.3375 67.2719 14.1215 67.2719 13.8492V13.461H63.777V13.5729C63.777 14.6254 64.0253 15.4815 64.5185 16.141C65.0156 16.8054 65.7213 17.2927 66.6395 17.6089C67.5577 17.9251 68.647 18.0807 69.9141 18.0807C71.3126 18.0807 72.4433 17.893 73.2972 17.5165C74.1549 17.1361 74.7768 16.6439 75.1694 16.0321C75.5585 15.4163 75.7542 14.7597 75.7542 14.0515C75.7542 13.5204 75.6423 13.0077 75.4181 12.5116Z" fill="#1C2D5A"/>
<path d="M71.9126 5.50623C71.9126 5.50623 74.9409 7.41995 71.9126 9.91781H75.5939C75.5939 7.85869 74.6122 6.11185 71.9126 5.50623Z" fill="#EF4123"/>
<path d="M15.3219 24.0677C11.1431 26.4803 13.8443 30.3056 14.8226 32L18.6319 29.8007C23.0274 27.2631 19.8957 21.427 15.3219 24.0677Z" fill="#AB1D05"/>
<path d="M14.3236 24.0677C18.5024 26.4803 15.8012 30.3056 14.8229 32L11.0136 29.8007C6.61807 27.2631 9.74976 21.427 14.3236 24.0677Z" fill="#EF4123"/>
<path d="M15.3219 24.0677C11.1431 26.4803 13.8443 30.3056 14.8226 32L18.6319 29.8007C23.0274 27.2631 19.8957 21.427 15.3219 24.0677Z" fill="#AB1D05" fill-opacity="0.5"/>
<path d="M23.8319 11.2982C25.4568 11.2982 26.7741 9.98088 26.7741 8.35593C26.7741 6.73098 25.4568 5.4137 23.8319 5.4137C22.2069 5.4137 20.8896 6.73098 20.8896 8.35593C20.8896 9.98088 22.2069 11.2982 23.8319 11.2982Z" fill="url(#paint0_linear_1506_12620)"/>
<path d="M14.8289 8.82669C17.2663 8.82669 19.2422 6.85077 19.2422 4.41335C19.2422 1.97592 17.2663 0 14.8289 0C12.3914 0 10.4155 1.97592 10.4155 4.41335C10.4155 6.85077 12.3914 8.82669 14.8289 8.82669Z" fill="url(#paint1_linear_1506_12620)"/>
<path d="M29.6576 17.7127C29.6576 22.5379 24.9942 22.1113 23.0376 22.1113V17.7127C23.0376 12.6372 29.6576 12.4313 29.6576 17.7127Z" fill="#EF4123"/>
<path d="M26.3626 18.6685C25.583 28.1424 14.8291 28.9074 14.8291 28.9074V11.1658C19.0512 11.1658 20.4635 16.7119 20.4635 16.7119C20.4635 16.7119 21.1843 12.8134 23.847 12.7546C23.847 12.7546 26.7157 12.5486 26.3626 18.6685Z" fill="#1C2D5A"/>
<path d="M18.6392 22.3756C20.8753 19.4775 20.3015 17.4032 20.4634 16.7117C20.7577 15.3584 21.302 14.4169 21.6845 13.9314C21.6845 13.9314 23.8763 18.3447 18.6392 22.3756Z" fill="#0F1C3E"/>
<path d="M26.3626 18.6685C25.583 28.1424 14.8291 28.9074 14.8291 28.9074V11.1658C19.0512 11.1658 20.4635 16.7119 20.4635 16.7119C20.4635 16.7119 21.1843 12.8134 23.847 12.7546C23.847 12.7546 26.7157 12.5486 26.3626 18.6685Z" fill="url(#paint2_linear_1506_12620)"/>
<path d="M18.6392 22.3756C20.8753 19.4775 20.3015 17.4032 20.4634 16.7117C20.7577 15.3584 21.302 14.4169 21.6845 13.9314C21.6845 13.9314 23.8763 18.3447 18.6392 22.3756Z" fill="url(#paint3_linear_1506_12620)"/>
<path d="M29.6576 17.7127C29.6576 22.5379 24.9942 22.1113 23.0376 22.1113V17.7127C23.0376 12.6372 29.6576 12.4313 29.6576 17.7127Z" fill="url(#paint4_linear_1506_12620)" fill-opacity="0.5"/>
<path d="M5.82584 11.2982C4.20089 11.2982 2.88361 9.98088 2.88361 8.35593C2.88361 6.73098 4.20089 5.4137 5.82584 5.4137C7.45079 5.4137 8.76807 6.73098 8.76807 8.35593C8.76807 9.98088 7.45079 11.2982 5.82584 11.2982Z" fill="url(#paint5_linear_1506_12620)"/>
<path d="M0 17.7127C2.10918e-07 22.5379 4.66344 22.1113 6.62002 22.1113V17.7127C6.62002 12.6372 -2.30857e-07 12.4313 0 17.7127Z" fill="#EF4123"/>
<path d="M3.29524 18.6685C4.07494 28.1424 14.8288 28.9074 14.8288 28.9074V11.1658C10.6067 11.1658 9.19442 16.7119 9.19442 16.7119C9.19442 16.7119 8.47357 12.8134 5.81085 12.7546C5.81085 12.7546 2.94218 12.5486 3.29524 18.6685Z" fill="url(#paint6_linear_1506_12620)"/>
<path d="M11.0189 22.3756C8.78282 19.4775 9.35656 17.4032 9.19465 16.7117C8.90042 15.3584 8.35611 14.4169 7.97362 13.9314C7.97362 13.9314 5.78175 18.3447 11.0189 22.3756Z" fill="url(#paint7_linear_1506_12620)"/>
<path d="M0 17.7127C2.10918e-07 22.5379 4.66344 22.1113 6.62002 22.1113V17.7127C6.62002 12.6372 -2.30857e-07 12.4313 0 17.7127Z" fill="url(#paint8_linear_1506_12620)" fill-opacity="0.5"/>
<path d="M23.0379 22.1108C22.8025 26.0681 14.8291 28.9074 14.8291 28.9074C20.3164 28.1571 23.8912 25.8033 25.5535 22.052C23.7882 22.1697 23.0379 22.1108 23.0379 22.1108Z" fill="url(#paint9_linear_1506_12620)"/>
<path d="M6.63475 22.1108C6.87013 26.0681 14.8436 28.9074 14.8436 28.9074C9.35631 28.1571 5.7815 25.8033 4.11914 22.052C5.88448 22.1697 6.63475 22.1108 6.63475 22.1108Z" fill="url(#paint10_linear_1506_12620)"/>
<path d="M15.1178 14.4697L15.7582 15.7674C15.8028 15.8577 15.8889 15.9202 15.9885 15.9347L17.4207 16.1428C17.6716 16.1793 17.7717 16.4875 17.5902 16.6643L16.5539 17.6745C16.4819 17.7447 16.4489 17.846 16.466 17.9451L16.7106 19.3715C16.7535 19.6213 16.4912 19.8118 16.2669 19.6939L14.986 19.0205C14.8969 18.9737 14.7904 18.9737 14.7013 19.0205L13.4204 19.6939C13.1961 19.8119 12.9338 19.6213 12.9767 19.3715L13.2213 17.9451C13.2383 17.846 13.2054 17.7447 13.1334 17.6745L12.0971 16.6643C11.9156 16.4874 12.0157 16.1792 12.2666 16.1428L13.6988 15.9347C13.7984 15.9202 13.8845 15.8577 13.929 15.7674L14.5695 14.4697C14.6815 14.2424 15.0056 14.2424 15.1178 14.4697Z" fill="#FFA726"/>
<path d="M14.829 27.1274C15.3164 27.1274 15.7116 26.7322 15.7116 26.2447C15.7116 25.7572 15.3164 25.3621 14.829 25.3621C14.3415 25.3621 13.9463 25.7572 13.9463 26.2447C13.9463 26.7322 14.3415 27.1274 14.829 27.1274Z" fill="url(#paint11_linear_1506_12620)"/>
<path d="M14.829 23.5966C15.3164 23.5966 15.7116 23.2015 15.7116 22.714C15.7116 22.2265 15.3164 21.8313 14.829 21.8313C14.3415 21.8313 13.9463 22.2265 13.9463 22.714C13.9463 23.2015 14.3415 23.5966 14.829 23.5966Z" fill="url(#paint12_linear_1506_12620)"/>
<defs>
<linearGradient id="paint0_linear_1506_12620" x1="23.8319" y1="5.4137" x2="23.8319" y2="11.2982" gradientUnits="userSpaceOnUse">
<stop stop-color="#EF4123"/>
<stop offset="1" stop-color="#892514"/>
</linearGradient>
<linearGradient id="paint1_linear_1506_12620" x1="14.8289" y1="0" x2="14.8289" y2="8.82669" gradientUnits="userSpaceOnUse">
<stop stop-color="#FFA726"/>
<stop offset="1" stop-color="#9B6617"/>
</linearGradient>
<linearGradient id="paint2_linear_1506_12620" x1="20.6109" y1="11.1658" x2="20.6109" y2="28.9074" gradientUnits="userSpaceOnUse">
<stop stop-color="#0F1C3E"/>
<stop offset="1" stop-color="#06102B"/>
</linearGradient>
<linearGradient id="paint3_linear_1506_12620" x1="20.3893" y1="13.9314" x2="20.3893" y2="22.3756" gradientUnits="userSpaceOnUse">
<stop stop-color="#802824"/>
<stop offset="1" stop-color="#FFA726"/>
</linearGradient>
<linearGradient id="paint4_linear_1506_12620" x1="26.3476" y1="22.121" x2="26.3476" y2="13.8285" gradientUnits="userSpaceOnUse">
<stop stop-color="#1C2D5A"/>
<stop offset="1" stop-color="#892514"/>
</linearGradient>
<linearGradient id="paint5_linear_1506_12620" x1="5.82584" y1="5.4137" x2="5.82584" y2="11.2982" gradientUnits="userSpaceOnUse">
<stop stop-color="#EF4123"/>
<stop offset="1" stop-color="#892514"/>
</linearGradient>
<linearGradient id="paint6_linear_1506_12620" x1="9.04695" y1="11.1658" x2="9.04695" y2="28.9074" gradientUnits="userSpaceOnUse">
<stop stop-color="#06102B"/>
<stop offset="1" stop-color="#0F1C3E"/>
</linearGradient>
<linearGradient id="paint7_linear_1506_12620" x1="9.26873" y1="13.9314" x2="9.26873" y2="22.3756" gradientUnits="userSpaceOnUse">
<stop stop-color="#D63A20"/>
<stop offset="1" stop-color="#FFA726"/>
</linearGradient>
<linearGradient id="paint8_linear_1506_12620" x1="3.31001" y1="13.8285" x2="3.31001" y2="22.121" gradientUnits="userSpaceOnUse">
<stop stop-color="#EF4123"/>
<stop offset="1" stop-color="#1C2D5A"/>
</linearGradient>
<linearGradient id="paint9_linear_1506_12620" x1="25.5388" y1="22.0373" x2="14.8291" y2="28.8927" gradientUnits="userSpaceOnUse">
<stop stop-color="#CD2F14"/>
<stop offset="1" stop-color="#06102B"/>
</linearGradient>
<linearGradient id="paint10_linear_1506_12620" x1="4.11914" y1="22.0373" x2="14.8289" y2="28.8927" gradientUnits="userSpaceOnUse">
<stop stop-color="#CD2F14"/>
<stop offset="1" stop-color="#0F1C3E"/>
</linearGradient>
<linearGradient id="paint11_linear_1506_12620" x1="14.829" y1="25.3621" x2="14.829" y2="27.1274" gradientUnits="userSpaceOnUse">
<stop stop-color="#FFA726"/>
<stop offset="1" stop-color="#9B6617"/>
</linearGradient>
<linearGradient id="paint12_linear_1506_12620" x1="14.829" y1="21.8313" x2="14.829" y2="23.5966" gradientUnits="userSpaceOnUse">
<stop stop-color="#FFA726"/>
<stop offset="1" stop-color="#9B6617"/>
</linearGradient>
</defs>
</svg>
